# xmcd
#
# Track frame offsets:
#	150
#	16157
#	31686
#	47242
#	64059
#	81163
#	97724
#	114007
#	127529
#	143630
#	161572
#	178724
#	195647
#	213650
#	228692
#	246181
#	264334
#	284356
#	299997
#	317344
#
# Disc length: 4403 seconds
#
# Revision: 2
# Processed by: cddbd v1.5.2PL0 Copyright (c) Steve Scherf et al.
# Submitted via: EasyCDDAExtractor 11.5.0.1
#
DISCID=10113114
DTITLE=Various Artist - NCT 027
DYEAR=2001
DGENRE=Country
TTITLE0=Tracy Byrd ft. Mark Chesnutt - A Good Way To Get On My Bad Side
TTITLE1=Phil Vassar - Six Pack Summer
TTITLE2=Martina McBride - When God-fearin' Women Get The Blues
TTITLE3=Brooks and Dunn - Only In America
TTITLE4=Aaron Tippin - Always Was
TTITLE5=Trace Adkins - I'm Tryin
TTITLE6=Travis Tritt - Love Of A Woman
TTITLE7=Mark McGuinn - That's A Plan
TTITLE8=Lorrie Morgan ft. Sammy Kershaw - I Finally Found Someone
TTITLE9=Leslie Satcher - Love Letters From Old Mexico
TTITLE10=Nickel Creek - When You Come Back Down
TTITLE11=Dolly Parton - Shine
TTITLE12=Marshall Dyllon - She Ain't Gonna Cry
TTITLE13=Coley McCabe - Who I Am To You
TTITLE14=Br549 - Lazy To Work, Too Nervous
TTITLE15=The Warren Brothers - Where Does It Hurt
TTITLE16=Brian Gowan - Warm Spanish Wine
TTITLE17=Lila McCann - Because Of You
TTITLE18=Clay Walker - If You Ever Feel Like Lovin' Me Again
TTITLE19=George Jones - It Is The Man He Was
EXTD=
EXTT0=
EXTT1=
EXTT2=
EXTT3=
EXTT4=
EXTT5=
EXTT6=
EXTT7=
EXTT8=
EXTT9=
EXTT10=
EXTT11=
EXTT12=
EXTT13=
EXTT14=
EXTT15=
EXTT16=
EXTT17=
EXTT18=
EXTT19=
PLAYORDER=
